<?xml version="1.0" encoding="UTF-8"?>
<svg id="Layer_2" data-name="Layer 2" xmlns="http://www.w3.org/2000/svg" viewBox="0 0 587.593261718748 146.99755859375">
  <defs>
    <style>
      .cls-1 {
        fill: #fff;
      }
    </style>
  </defs>
  <g id="Layer_1-2" data-name="Layer 1">
    <g>
      <path class="cls-1" d="M135.998046875,44.9990234375v39.599609375c0,3.7998046875-.7998046875,12.99951171875,5.2001953125,12.99951171875,5.599609375,0,4.99951171875-7.7998046875,4.99951171875-11.39990234375l-.19970703125-84.19873046875h35.3994140625l.2001953125,100.19873046875c0,32.19970703125-9,44.59912109375-32.7998046875,44.59912109375-24.3994140625,0-34.599609375-12.99951171875-34.599609375-44.59912109375v-44.19921875c0-4,.2001953125-11.2001953125-5.39990234375-11.2001953125-5.599609375,0-4.99951171875,7.60009765625-4.99951171875,11.2001953125v86.99853515625C29.39990234375,144.99755859375,0,104.39794921875,0,1.99951171875h58.3994140625l-.2001953125,37.99951171875c-.19970703125,12.60009765625-2,62.19921875,18.39990234375,62.19921875v-57.19921875C76.59912109375,14.3994140625,85.19873046875,0,103.3984375,0c20.39990234375,0,32.599609375,16.79931640625,32.599609375,44.9990234375Z"/>
      <path class="cls-1" d="M193.798828125,135.3974609375c13.39990234375-13.3994140625,17-21.3994140625,17-39.19921875,0-34.19921875-8.60009765625-76.5986328125-17-84.99853515625V1.99951171875h83.798828125v9.2001953125c-8.3994140625,8.39990234375-16.7998046875,50.79931640625-16.7998046875,84.99853515625,0,17.7998046875,3.400390625,25.7998046875,16.7998046875,39.19921875v9.60009765625h-83.798828125v-9.60009765625Z"/>
      <path class="cls-1" d="M403.995605468748,145.19775390625l23.19921875-100.3984375h-5c-7.3994140625,24.99951171875-23.599609375,102.1982421875-57.1982421875,102.1982421875-16,0-24-15.7998046875-24.2001953125-47.99951171875v-42.9990234375c0-11.39990234375-3.599609375-18.7998046875-9-18.7998046875v107.59814453125h-41.999023437498V1.99951171875h40.399414062498c22.3994140625,0,33.19921875,13.7998046875,33.19921875,42.99951171875v24.19970703125c0,4-.599609375,27.99951171875,6.7998046875,27.99951171875,6.6005859375,0,21.599609375-28.99951171875,31.2001953125-60.19921875,3.3994140625-11.3994140625,6.3994140625-22.99951171875,8.599609375-34.59912109375v-.400390625h49.9990234375v143.1982421875h-55.9990234375Z"/>
      <path class="cls-1" d="M522.193847656248,1.99951171875c17.2001953125,0,62.599609375-1.599609375,62.599609375,24.60009765625,0,21.79931640625-30.599609375,21.19921875-45.7998046875,20.99951171875v5c30.7998046875,11.599609375,48.599609375,32.79931640625,48.599609375,57.798828125,0,22-13.400390625,36.599609375-33.3994140625,36.599609375-15.6005859375,0-27.7998046875-9.39990234375-37-27.99951171875h-5l14,25.99951171875h-53.9990234375V1.99951171875h49.9990234375ZM522.193847656248,34.3994140625c2.599609375,0,25.599609375.39990234375,25.599609375-3.80029296875,0-4.39990234375-23-3.599609375-25.599609375-3.599609375v7.39990234375ZM522.193847656248,96.59814453125c6,6.80029296875,12.2001953125,10.39990234375,18,10.39990234375,6.3994140625,0,10.3994140625-4.39990234375,10.3994140625-11.39990234375,0-11.39990234375-11-24.19970703125-28.3994140625-32.79931640625v33.79931640625Z"/>
    </g>
  </g>
</svg>